<svg width="15.000000" height="14.000000" viewBox="0 0 15 14" fill="none" xmlns="http://www.w3.org/2000/svg" xmlns:xlink="http://www.w3.org/1999/xlink">
	<desc>
			Created with Pixso.
	</desc>
	<defs/>
	<path id="Vector" d="M12.82 3.65L10.39 3.65C9.78 3.65 9.24 3.25 9.06 2.66L8.33 0.32C7.93 -0.99 6.06 -0.99 5.66 0.32L4.93 2.66C4.75 3.25 4.21 3.65 3.6 3.65L1.12 3.65C-0.21 3.65 -0.79 5.35 0.27 6.16L2.39 7.78C2.85 8.14 3.05 8.75 2.88 9.3L2.11 11.82C1.71 13.12 3.22 14.17 4.3 13.34L6.14 11.92C6.65 11.54 7.34 11.54 7.85 11.92L9.68 13.32C10.76 14.15 12.27 13.1 11.86 11.8L11.09 9.28C10.91 8.71 11.11 8.1 11.58 7.75L13.67 6.17C14.74 5.36 14.17 3.65 12.82 3.65Z" fill="#FFAD33" fill-opacity="1.000000" fill-rule="nonzero"/>
</svg>
